<mxfile host="65bd71144e">
    <diagram id="g3nJkeIs8Y0m1NMNmTMx" name="Page-1">
        <mxGraphModel dx="733" dy="896" grid="1" gridSize="10" guides="1" tooltips="1" connect="1" arrows="1" fold="1" page="1" pageScale="1" pageWidth="827" pageHeight="1169" math="0" shadow="0">
            <root>
                <mxCell id="0"/>
                <mxCell id="1" parent="0"/>
                <mxCell id="2" value="" style="rounded=1;whiteSpace=wrap;html=1;" vertex="1" parent="1">
                    <mxGeometry x="40" y="70" width="470" height="630" as="geometry"/>
                </mxCell>
                <mxCell id="3" value="&lt;font style=&quot;font-size: 24px&quot; color=&quot;#ff0000&quot;&gt;react-dom&lt;/font&gt;" style="text;html=1;strokeColor=none;fillColor=none;align=center;verticalAlign=middle;whiteSpace=wrap;rounded=0;" vertex="1" parent="1">
                    <mxGeometry x="67.5" y="80" width="205" height="40" as="geometry"/>
                </mxCell>
                <mxCell id="6" style="edgeStyle=none;html=1;exitX=0.5;exitY=1;exitDx=0;exitDy=0;fontSize=18;fontColor=#FF0000;" edge="1" parent="1" source="4" target="5">
                    <mxGeometry relative="1" as="geometry"/>
                </mxCell>
                <mxCell id="4" value="&lt;font style=&quot;font-size: 18px&quot;&gt;createRoot()&lt;/font&gt;" style="rounded=1;whiteSpace=wrap;html=1;fontSize=24;" vertex="1" parent="1">
                    <mxGeometry x="67.5" y="140" width="212.5" height="50" as="geometry"/>
                </mxCell>
                <mxCell id="8" style="edgeStyle=none;html=1;exitX=0.5;exitY=1;exitDx=0;exitDy=0;entryX=0.5;entryY=0;entryDx=0;entryDy=0;fontSize=18;fontColor=#FF0000;" edge="1" parent="1" source="5" target="7">
                    <mxGeometry relative="1" as="geometry"/>
                </mxCell>
                <mxCell id="5" value="ReactDOMRoot" style="ellipse;whiteSpace=wrap;html=1;fontSize=18;" vertex="1" parent="1">
                    <mxGeometry x="78.75" y="230" width="190" height="70" as="geometry"/>
                </mxCell>
                <mxCell id="10" style="edgeStyle=none;html=1;exitX=0.5;exitY=1;exitDx=0;exitDy=0;entryX=0.25;entryY=0;entryDx=0;entryDy=0;fontSize=18;fontColor=#FF0000;" edge="1" parent="1" source="7" target="9">
                    <mxGeometry relative="1" as="geometry"/>
                </mxCell>
                <mxCell id="7" value="&lt;font style=&quot;font-size: 18px&quot;&gt;ReactDOMRoot.render()&lt;/font&gt;" style="rounded=1;whiteSpace=wrap;html=1;fontSize=24;" vertex="1" parent="1">
                    <mxGeometry x="67.5" y="340" width="212.5" height="50" as="geometry"/>
                </mxCell>
                <mxCell id="9" value="" style="rounded=1;whiteSpace=wrap;html=1;fontSize=18;fontColor=#FF0000;" vertex="1" parent="1">
                    <mxGeometry x="67.5" y="430" width="412.5" height="240" as="geometry"/>
                </mxCell>
                <mxCell id="11" value="&lt;font color=&quot;#ffffff&quot; style=&quot;font-size: 24px&quot;&gt;updateContainer()&lt;/font&gt;" style="text;html=1;strokeColor=none;fillColor=none;align=center;verticalAlign=middle;whiteSpace=wrap;rounded=0;fontSize=18;fontColor=#FF0000;" vertex="1" parent="1">
                    <mxGeometry x="90" y="450" width="190" height="40" as="geometry"/>
                </mxCell>
                <mxCell id="12" value="&lt;ol&gt;&lt;li&gt;根据传入 element ( &amp;lt;App /&amp;gt; ) 生成 fiber，其父节点是项目根元素生成的 fiber ( document.getElementById('root') )&lt;/li&gt;&lt;li&gt;将 &amp;lt;App /&amp;gt; 挂载到根元素上 ( document.getElementById('root') )&lt;/li&gt;&lt;/ol&gt;" style="text;html=1;strokeColor=none;fillColor=none;align=left;verticalAlign=middle;whiteSpace=wrap;rounded=0;fontSize=18;fontColor=#FFFFFF;" vertex="1" parent="1">
                    <mxGeometry x="78.75" y="500" width="371.25" height="170" as="geometry"/>
                </mxCell>
                <mxCell id="14" value="" style="rounded=1;whiteSpace=wrap;html=1;" vertex="1" parent="1">
                    <mxGeometry x="630" y="70" width="1000" height="1000" as="geometry"/>
                </mxCell>
                <mxCell id="15" value="&lt;font style=&quot;font-size: 36px&quot; color=&quot;#ff0000&quot;&gt;react&lt;/font&gt;" style="text;html=1;strokeColor=none;fillColor=none;align=center;verticalAlign=middle;whiteSpace=wrap;rounded=0;" vertex="1" parent="1">
                    <mxGeometry x="690" y="100" width="130" height="40" as="geometry"/>
                </mxCell>
                <mxCell id="16" value="" style="rounded=1;whiteSpace=wrap;html=1;fontSize=24;" vertex="1" parent="1">
                    <mxGeometry x="670" y="590" width="330" height="200" as="geometry"/>
                </mxCell>
                <mxCell id="17" value="scheduleUpdateOnFiber" style="text;html=1;strokeColor=none;fillColor=none;align=center;verticalAlign=middle;whiteSpace=wrap;rounded=0;fontSize=24;fontColor=#FFFFFF;" vertex="1" parent="1">
                    <mxGeometry x="685" y="610" width="300" height="50" as="geometry"/>
                </mxCell>
                <mxCell id="18" value="" style="endArrow=classic;html=1;fontSize=24;fontColor=#FFFFFF;entryX=0;entryY=0.25;entryDx=0;entryDy=0;" edge="1" parent="1" target="16">
                    <mxGeometry width="50" height="50" relative="1" as="geometry">
                        <mxPoint x="400" y="637" as="sourcePoint"/>
                        <mxPoint x="450" y="600" as="targetPoint"/>
                    </mxGeometry>
                </mxCell>
                <mxCell id="19" value="wip: 当前遍历的 fiber 指针" style="text;html=1;strokeColor=none;fillColor=none;align=left;verticalAlign=middle;whiteSpace=wrap;rounded=0;fontSize=24;fontColor=#FFFFFF;" vertex="1" parent="1">
                    <mxGeometry x="750" y="150" width="295" height="50" as="geometry"/>
                </mxCell>
                <mxCell id="20" value="wipRoot: 发起当前更新遍历的 fiber 节点" style="text;html=1;strokeColor=none;fillColor=none;align=left;verticalAlign=middle;whiteSpace=wrap;rounded=0;fontSize=24;fontColor=#FFFFFF;" vertex="1" parent="1">
                    <mxGeometry x="750" y="200" width="450" height="40" as="geometry"/>
                </mxCell>
                <mxCell id="21" value="&lt;span style=&quot;font-size: 24px&quot;&gt;将 wip 和 wipRoot 指向传入的 fiber 节点&lt;/span&gt;" style="text;html=1;strokeColor=none;fillColor=none;align=left;verticalAlign=middle;whiteSpace=wrap;rounded=0;fontSize=36;fontColor=#FFFFFF;" vertex="1" parent="1">
                    <mxGeometry x="690" y="680" width="285" height="80" as="geometry"/>
                </mxCell>
                <mxCell id="25" style="edgeStyle=none;html=1;exitX=1;exitY=0.3333333333333333;exitDx=0;exitDy=0;exitPerimeter=0;entryX=0;entryY=0.5;entryDx=0;entryDy=0;fontSize=18;fontColor=#FFFFFF;" edge="1" parent="1" source="22" target="24">
                    <mxGeometry relative="1" as="geometry"/>
                </mxCell>
                <mxCell id="22" value="" style="shape=umlActor;verticalLabelPosition=bottom;verticalAlign=top;html=1;outlineConnect=0;fontSize=24;fontColor=#FFFFFF;" vertex="1" parent="1">
                    <mxGeometry x="680" y="350" width="40" height="70" as="geometry"/>
                </mxCell>
                <mxCell id="28" style="edgeStyle=none;html=1;exitX=0.5;exitY=1;exitDx=0;exitDy=0;entryX=0.25;entryY=0;entryDx=0;entryDy=0;fontSize=18;fontColor=#FFFFFF;" edge="1" parent="1" source="24" target="27">
                    <mxGeometry relative="1" as="geometry"/>
                </mxCell>
                <mxCell id="24" value="" style="rhombus;whiteSpace=wrap;html=1;fontSize=24;fontColor=#FFFFFF;align=left;" vertex="1" parent="1">
                    <mxGeometry x="800" y="300" width="600" height="150" as="geometry"/>
                </mxCell>
                <mxCell id="26" value="&lt;span&gt;浏览器空闲且当前有更新任务&lt;/span&gt;&lt;br&gt;&lt;span&gt;wip &amp;amp;&amp;amp; IdleDeadline.timeRemaining() &amp;gt; 0 )&amp;nbsp;&lt;/span&gt;" style="text;html=1;strokeColor=none;fillColor=none;align=left;verticalAlign=middle;whiteSpace=wrap;rounded=0;fontSize=18;fontColor=#FFFFFF;" vertex="1" parent="1">
                    <mxGeometry x="950" y="320" width="385" height="110" as="geometry"/>
                </mxCell>
                <mxCell id="27" value="更新当前 wip 并得到下一个 wip; 提交当前 fiber 到 DOM 节点上" style="swimlane;fontSize=18;fontColor=#FFFFFF;" vertex="1" parent="1">
                    <mxGeometry x="1045" y="540" width="535" height="460" as="geometry"/>
                </mxCell>
                <mxCell id="33" style="edgeStyle=none;html=1;exitX=0.5;exitY=1;exitDx=0;exitDy=0;entryX=0.5;entryY=0;entryDx=0;entryDy=0;fontSize=18;fontColor=#FFFFFF;" edge="1" parent="27" source="30" target="32">
                    <mxGeometry relative="1" as="geometry"/>
                </mxCell>
                <mxCell id="30" value="performUnitOfWork()" style="text;html=1;strokeColor=none;fillColor=none;align=center;verticalAlign=middle;whiteSpace=wrap;rounded=0;fontSize=24;fontColor=#FFFFFF;" vertex="1" parent="27">
                    <mxGeometry x="15" y="60" width="255" height="50" as="geometry"/>
                </mxCell>
                <mxCell id="31" value="&lt;ol&gt;&lt;li&gt;updateXXXComponent()&lt;/li&gt;&lt;li&gt;wip = xxx&lt;/li&gt;&lt;/ol&gt;" style="rounded=1;whiteSpace=wrap;html=1;fontSize=18;fontColor=#FFFFFF;align=left;" vertex="1" parent="27">
                    <mxGeometry x="270" y="45" width="240" height="95" as="geometry"/>
                </mxCell>
                <mxCell id="32" value="commitRoot()" style="text;html=1;strokeColor=none;fillColor=none;align=center;verticalAlign=middle;whiteSpace=wrap;rounded=0;fontSize=24;fontColor=#FFFFFF;" vertex="1" parent="27">
                    <mxGeometry x="15" y="190" width="255" height="50" as="geometry"/>
                </mxCell>
                <mxCell id="34" value="&lt;ol&gt;&lt;li&gt;提交自己&lt;/li&gt;&lt;li&gt;提交 wip 子节点&lt;br&gt;commitWork(wip.child)&lt;/li&gt;&lt;li&gt;提交 wip 兄弟节点&lt;br&gt;commitWork(wip.sibling)&lt;/li&gt;&lt;/ol&gt;" style="rounded=1;whiteSpace=wrap;html=1;fontSize=18;fontColor=#FFFFFF;align=left;" vertex="1" parent="27">
                    <mxGeometry x="255" y="170" width="265" height="250" as="geometry"/>
                </mxCell>
            </root>
        </mxGraphModel>
    </diagram>
</mxfile>